<svg width="45" height="42" viewBox="0 0 45 42" fill="none" xmlns="http://www.w3.org/2000/svg">
<path d="M19.5327 4.75438C19.5327 3.56176 19.5963 3.49817 20.7889 3.49817C21.3783 3.49817 23.3013 3.1969 23.3013 3.96925C23.3013 4.80795 22.6732 5.30028 22.6732 6.15017C22.6732 7.17129 22.714 8.20068 22.6732 9.2209C22.631 10.2773 21.417 9.83716 21.417 8.83706C21.417 8.07722 21.7089 6.75068 20.9634 6.32464C20.2357 5.90884 19.5327 6.25379 19.5327 5.22546C19.5327 4.16753 19.2464 3.49817 20.4749 3.49817" stroke="#E2B714" stroke-width="2" stroke-linecap="round"/>
<path d="M2.40182 12.8035C1.03431 12.9745 1.56401 16.779 1.56401 17.621C1.56401 18.8543 3.62288 19.5061 4.6011 19.5061C6.10219 19.5061 7.60328 19.5061 9.10437 19.5061C10.0663 19.5061 11.0282 19.5061 11.9902 19.5061C12.5727 19.5061 14.0841 19.7801 14.5385 19.4013C15.5056 18.5955 17.7097 18.4753 18.9371 18.6799C19.7145 18.8095 19.6308 19.5491 20.1007 19.925C20.8346 20.5121 20.7895 20.7628 21.8811 20.7628C23.1828 20.7628 25.3378 21.1811 26.3844 20.3439C26.7657 20.0388 26.908 18.9055 26.908 18.4588C26.908 17.3758 27.008 16.299 26.652 15.2704C26.3545 14.4111 25.8261 14.1212 25.3953 13.4319C25.0131 12.8204 24.0358 13.0199 23.5567 12.5941C23.1185 12.2045 21.5015 12.1832 21.0898 12.6406C20.6161 13.167 20.1682 14.8564 20.0193 15.5264C19.8087 16.474 19.7865 17.3798 19.7865 18.3541C19.7865 20.1284 19.7865 18.5694 19.7865 17.621C19.7865 16.6858 19.3138 13.013 20.4847 13.013C23.6506 13.013 14.1509 12.9699 10.9895 12.8035C9.26896 12.713 7.99433 11.7563 6.27673 11.7563C5.62694 11.7563 4.30734 11.519 3.75164 11.8726C3.5798 11.982 1.54743 12.8035 2.40182 12.8035Z" stroke="#E2B714" stroke-width="2" stroke-linecap="round"/>
<path d="M24.604 13.013C25.4162 13.013 26.0711 12.3846 26.8033 12.3846C27.6754 12.3846 28.6502 12.1752 29.5844 12.1752C31.2406 12.1752 32.8968 12.1752 34.5531 12.1752C36.0676 12.1752 37.3664 12.0799 38.5327 13.013C38.7425 13.1808 39.2358 13.1772 39.2658 13.4319C39.3161 13.8592 39.6812 14.1046 39.8476 14.4792C40.1117 15.0733 40.2895 15.9843 40.3131 16.6202C40.3831 18.5117 41.2532 19.9889 41.3604 21.8101C41.4372 23.1157 42.6381 24.3817 41.0462 25.2661C40.559 25.5367 39.0259 25.5802 38.4745 25.5802C37.7683 25.5802 36.3334 25.9428 36.3334 25.0566C36.3334 24.5793 36.6182 22.8163 36.2869 22.485C35.9164 22.1145 35.5457 21.5504 35.2396 20.9722C34.8822 20.297 34.2528 19.925 33.5058 19.925C33.1266 19.925 33.0824 19.5061 32.5633 19.5061C32.1444 19.5061 31.7254 19.5061 31.3065 19.5061C29.7434 19.5061 25.0539 19.5061 26.6171 19.5061C27.7303 19.5061 26.4288 20.3105 25.8607 20.3439C25.352 20.3738 24.8259 21.1817 24.2898 21.1817C23.3531 21.1817 22.397 21.2367 21.4622 21.1817C20.8401 21.1451 20.4161 20.2146 20.0425 19.8784C18.9655 18.9091 19.1582 17.1421 19.1582 15.7359C19.1582 13.8849 19.5569 12.2968 21.4738 11.9773C22.3832 11.8258 23.2591 11.5468 24.1851 11.5468C24.573 11.5468 24.9608 11.5468 25.3487 11.5468C25.7423 11.5468 26.2099 12.24 25.7444 12.373C25.2931 12.5019 22.4603 12.3846 23.7662 12.3846C25.8225 12.3846 23.7031 12.1752 24.1851 12.1752" stroke="#E2B714" stroke-width="2" stroke-linecap="round"/>
<path d="M24.604 11.9657C24.0765 11.9657 23.0215 11.9657 23.0215 11.9657C23.0215 11.9657 24.3822 12.1022 24.8949 12.501C25.6302 13.0729 25.8643 14.481 26.6985 14.8981" stroke="#E2B714" stroke-width="2" stroke-linecap="round"/>
<path d="M36.5429 24.9519C36.5429 25.9457 35.7871 25.4584 35.4491 25.9991C35.2031 26.3927 34.6273 27.7606 35.1233 28.2566C35.6013 28.7346 38.7771 28.3419 39.4753 28.3031C40.3126 28.2566 40.6815 27.4653 41.5698 27.4653C42.4335 27.4653 42.6966 27.5661 43.0825 26.837C43.7651 25.5477 43.6418 23.9046 41.7793 23.9046" stroke="#E2B714" stroke-width="2" stroke-linecap="round"/>
<path d="M39.6847 31.2355C39.5203 31.2561 38.1538 33.4879 37.8462 33.7955C37.1199 34.5218 36.4505 35.4766 36.3335 36.4719C36.2991 36.7638 35.9146 36.6393 35.9146 36.9955C35.9146 37.2399 35.9146 37.4842 35.9146 37.7286C35.9146 38.4069 35.9731 38.4832 36.2869 38.9853C36.6027 39.4906 37.1936 39.4706 37.5902 39.8232C37.9024 40.1007 38.6317 40.0778 38.8469 40.3468C39.2954 40.9074 41.0777 40.3703 41.3371 39.9162C41.9597 38.8266 42.4076 38.1699 42.4076 36.7744C42.4076 36.2562 42.5208 35.5782 42.3029 35.0988C42.0536 34.5502 41.5647 34.0503 41.3604 33.5395C41.2099 33.1634 40.6364 33.0477 40.5109 32.6086C40.3626 32.0894 39.8635 31.5624 39.6847 31.0261" stroke="#E2B714" stroke-width="2" stroke-linecap="round"/>
<path d="M38.9901 32.479C39.1212 32.4954 39.4896 33.0344 39.539 33.1456C39.6574 33.4119 39.9312 33.792 39.9312 34.0475C39.9312 34.4773 39.9312 34.9072 39.9312 35.3371C39.9312 35.7812 39.6327 36.1006 39.6175 36.4961C39.6074 36.7563 39.3739 36.7215 39.3038 36.9143C39.2642 37.0231 39.1968 37.27 39.1077 37.3413C38.9078 37.5012 38.8036 37.7047 38.5544 37.8293C38.1985 38.0072 37.8169 38.1927 37.5 38.4393C37.2538 38.6307 36.6516 38.9098 36.3236 38.9098" stroke="#E2B714" stroke-linecap="round"/>
<g filter="url(#filter0_f_1_77)">
<path d="M38.3626 34.3612C37.7742 34.3612 37.3004 34.5806 37.2647 35.2238C37.2386 35.6927 36.9379 36.3955 37.5 36.5963C38.1042 36.8121 38.4358 36.5166 38.5936 35.9645C38.7196 35.5235 38.634 34.7471 38.4411 34.3612" stroke="#E2B714" stroke-linecap="round"/>
</g>
<g filter="url(#filter1_f_1_77)">
<path d="M37.6447 34.7652C37.5762 34.7652 37.5223 34.8735 37.4971 34.9268C37.4805 34.9618 37.4692 35.02 37.4432 35.0485C37.417 35.0774 37.4265 35.1143 37.4073 35.1383C37.3669 35.1888 37.3863 35.2955 37.3614 35.3578C37.3268 35.4444 37.3215 35.5606 37.3215 35.6531C37.3215 35.7375 37.3215 35.822 37.3215 35.9065C37.3215 35.9723 37.3215 36.0381 37.3215 36.104C37.3215 36.1633 37.3456 36.18 37.3564 36.2287C37.3929 36.3926 37.5689 36.489 37.7345 36.489C38.0336 36.489 38.2657 36.3031 38.3311 35.9942C38.3914 35.7091 38.363 35.3991 38.363 35.1054C38.363 34.9928 38.363 34.8892 38.3171 34.7842C38.295 34.7336 38.2413 34.6299 38.1824 34.6226C38.1117 34.6137 37.9332 34.5936 37.8782 34.6425C37.594 34.8951 37.6225 35.2394 37.6268 35.5832C37.6289 35.7514 37.6597 36.0403 37.8782 36.0721C38.1 36.1043 38.2008 35.6721 38.2513 35.5274C38.3031 35.3787 38.3154 35.1863 38.2752 35.0326C38.2581 34.9673 38.2216 34.7842 38.1475 34.7513C38.0536 34.7095 37.9333 35.1207 37.9181 35.1802C37.876 35.3439 37.8476 35.525 37.8602 35.695C37.8709 35.8398 38.0719 35.576 38.0837 35.5533C38.1969 35.336 38.2014 35.1356 38.2014 34.8989C38.2014 34.8717 38.1822 34.6309 38.2113 34.6226C38.2722 34.6052 38.2935 34.5942 38.335 34.5408C38.3883 34.4723 38.4235 34.6058 38.4438 34.6525C38.5297 34.8506 38.5198 35.036 38.4388 35.2281C38.3773 35.374 38.281 35.5714 38.1515 35.671C38.032 35.7629 37.8959 35.9049 37.8283 36.0401C37.8107 36.0753 37.8203 36.1972 37.8203 36.1578C37.8203 36.1033 37.6263 36.0533 37.5769 36.0222C37.4506 35.9427 37.4577 36.1353 37.4841 36.2277C37.5204 36.3546 37.5773 35.9735 37.5719 35.8416C37.5714 35.8299 37.5708 35.7474 37.5509 35.7389C37.5474 35.7373 37.5857 35.883 37.5899 35.8945C37.6338 36.0155 37.6971 36.4034 37.922 36.3434C37.995 36.3239 38.0641 36.1894 38.0747 36.1209C38.0861 36.047 38.0757 36.0837 38.0757 36.1379C38.0757 36.247 38.0472 36.1049 38.0038 36.076" stroke="#E2B714" stroke-linecap="round"/>
</g>
<path d="M38.7119 32.7745C38.8985 32.7745 39.085 32.7745 39.2716 32.7745C39.3359 32.7745 39.5656 32.9731 39.57 33.0356C39.5708 33.0459 39.5413 32.9962 39.512 32.9776C39.4553 32.9415 39.3921 32.9393 39.3379 32.9071C39.2316 32.8442 39.1342 32.7745 39.0104 32.7745C38.8076 32.7745 38.5137 32.7022 38.4218 32.932C38.3195 33.1875 38.787 33.0356 38.9441 33.0356C39.1889 33.0356 39.362 33.1214 39.57 33.2139C39.9072 33.3637 39.7939 33.9495 39.7939 34.2668" stroke="#E2B714" stroke-linecap="round"/>
<path d="M36.063 38.52C36.2195 38.52 36.3018 38.559 36.4444 38.6029C36.5755 38.6432 36.7228 38.8119 36.8465 38.8185C36.9787 38.8254 37.0585 38.8931 37.2113 38.8931C37.3347 38.8931 37.4261 38.8847 37.5346 38.8537C37.7216 38.8003 37.1212 38.8273 36.9564 38.9304C36.7898 39.0345 36.19 39.0796 36.3864 39.0796C36.624 39.0796 36.8573 39.0911 37.089 39.0423C37.1947 39.0201 37.2734 38.9466 37.3688 38.9014C37.4606 38.8579 37.4498 38.8186 37.5263 38.7604C37.6167 38.6918 38.0989 37.9608 38.1067 37.9686C38.1256 37.9875 37.524 38.8206 38.0362 38.2443C38.2128 38.0457 38.5653 37.8605 38.6746 37.5873C38.6895 37.5502 38.7397 37.5096 38.7658 37.4671C38.8164 37.3849 38.865 37.2995 38.9171 37.2183C39.0234 37.053 39.1101 36.8654 39.1969 36.6919" stroke="#E2B714" stroke-linecap="round"/>
<path d="M20.6772 12.5153C20.6315 12.7438 20.4293 12.8885 20.3354 13.0933C20.2627 13.2516 20.1284 13.3686 20.0622 13.5303C20.0141 13.648 19.9883 13.7908 19.9477 13.9126C19.8929 14.0771 19.9471 13.9944 20.0111 13.8792" stroke="#E2B714" stroke-linecap="round"/>
<path d="M23.3732 11.9761C23.1379 11.9761 22.9117 11.9444 22.6789 11.9444C22.4669 11.9444 22.203 11.9048 22.0023 11.9832C21.78 12.07 21.5637 12.1784 21.3433 12.2616C21.175 12.3251 20.7893 12.4575 20.6948 12.6105C20.5875 12.7843 20.4253 12.9343 20.3424 13.125C20.2473 13.3437 20.2813 13.5774 20.2261 13.7981C20.1947 13.9237 20.0839 14.0554 20.0111 14.1646" stroke="#E2B714" stroke-linecap="round"/>
<path d="M25.403 11.7541C25.4227 11.8328 25.5127 11.7525 25.4964 11.8828C25.4768 12.0397 25.3231 12.0898 25.1863 12.1012C25.1047 12.108 24.9943 12.116 24.9132 12.1012C24.7077 12.0639 24.8298 11.9761 24.9766 11.9761C25.0685 11.9761 25.136 11.9629 25.2057 12.0325C25.2653 12.0921 25.2989 12.2204 25.1634 12.1594C24.9966 12.0843 25.3377 12.1117 25.396 12.1347C25.5025 12.1768 25.6025 12.2299 25.7202 12.2299" stroke="#E2B714" stroke-linecap="round"/>
<path d="M17.2419 6.05815C17.2419 4.93228 17.5817 3.84805 16.3519 3.4053C16.0873 3.31006 15.9075 3.2855 15.6245 3.2855C15.2581 3.2855 15.123 2.97742 14.7773 2.97742C14.3052 2.97742 13.9072 2.36128 13.3139 2.36128C12.6318 2.36128 11.9738 1.89917 11.2344 1.89917C10.6697 1.89917 10.1045 1.61231 9.57426 1.59109C8.5381 1.54965 7.46078 1.43706 6.38228 1.43706C5.14102 1.43706 5.12251 4.11357 5.3896 5.04836C5.63374 5.90287 7.54003 6.33336 8.42754 6.36623C10.057 6.42658 11.7001 6.36623 13.331 6.36623C14.7126 6.36623 16.224 5.90412 17.5499 5.90412" stroke="#E2B714" stroke-width="2" stroke-linecap="round"/>
<path d="M24.7897 5.90412C24.7897 4.56865 25.7122 4.09932 26.7921 3.55934C27.3171 3.29688 27.6758 3.11479 28.2555 2.98598C28.7915 2.86687 29.2329 3.03212 29.7188 2.78915C30.0277 2.63473 30.6915 2.51531 31.0282 2.51531C31.5446 2.51531 31.8666 2.25955 32.3375 2.20724C32.7255 2.16413 35.4661 1.23309 35.5637 1.91628C35.684 2.75887 36.1813 4.60113 35.1786 5.05691C34.0133 5.58661 32.461 5.59604 31.1822 5.59604C30.0876 5.59604 28.9188 5.75008 27.7848 5.75008C26.6315 5.75008 25.6031 6.05815 24.4816 6.05815" stroke="#E2B714" stroke-width="2" stroke-linecap="round"/>
<defs>
<filter id="filter0_f_1_77" x="35.6611" y="32.8611" width="4.49182" height="5.30602" filterUnits="userSpaceOnUse" color-interpolation-filters="sRGB">
<feFlood flood-opacity="0" result="BackgroundImageFix"/>
<feBlend mode="normal" in="SourceGraphic" in2="BackgroundImageFix" result="shape"/>
<feGaussianBlur stdDeviation="0.5" result="effect1_foregroundBlur_1_77"/>
</filter>
<filter id="filter1_f_1_77" x="32.8215" y="30.0216" width="10.1826" height="10.9675" filterUnits="userSpaceOnUse" color-interpolation-filters="sRGB">
<feFlood flood-opacity="0" result="BackgroundImageFix"/>
<feBlend mode="normal" in="SourceGraphic" in2="BackgroundImageFix" result="shape"/>
<feGaussianBlur stdDeviation="2" result="effect1_foregroundBlur_1_77"/>
</filter>
</defs>
</svg>
